<?xml version="1.0" encoding="UTF-8" standalone="no"?>
<svg width="30px" height="30px" viewBox="0 0 30 30" version="1.1" xmlns="http://www.w3.org/2000/svg" xmlns:xlink="http://www.w3.org/1999/xlink">
    <!-- Generator: Sketch 3.7.1 (28215) - http://www.bohemiancoding.com/sketch -->
    <title>box-time-1x</title>
    <desc>Created with Sketch.</desc>
    <defs>
        <polygon id="path-1" points="18 8.99997 18 0 0 0 0 8.99997 0 17.99994 18 17.99994 18 8.99997"></polygon>
    </defs>
    <g id="_Components" stroke="none" stroke-width="1" fill="none" fill-rule="evenodd">
        <g id="Icons" transform="translate(-41.000000, -39.000000)">
            <g id="box-time-1x" transform="translate(41.000000, 39.000000)">
                <rect id="Rectangle-155" fill="#303B3D" x="0" y="0" width="30" height="30"></rect>
                <g id="Icon-/-Light-/-Medium-/-Timesheet" transform="translate(6.000000, 6.000000)">
                    <g id="Icon-/-Medium-/-Light-/-Timesheet">
                        <g id="Icon-/-Timesheet">
                            <mask id="mask-2" fill="white">
                                <use xlink:href="#path-1"></use>
                            </mask>
                            <g id="Clip-2"></g>
                            <path d="M9.6,7.30254 L9.6,2.39994 L8.4,2.39994 L8.4,7.30254 C7.701,7.54974 7.2,8.21574 7.2,8.99994 C7.2,9.99414 8.0058,10.79994 9,10.79994 C9.7842,10.79994 10.4502,10.29894 10.6974,9.59994 L14.4,9.59994 L14.4,8.39994 L10.6974,8.39994 C10.5162,7.88874 10.1112,7.48374 9.6,7.30254 M9,16.79994 C4.692,16.79994 1.2,13.30794 1.2,8.99994 C1.2,4.69194 4.692,1.19994 9,1.19994 C13.308,1.19994 16.8,4.69194 16.8,8.99994 C16.8,13.30794 13.308,16.79994 9,16.79994 M9,-5.99999998e-05 C4.0296,-5.99999998e-05 0,4.02954 0,8.99994 C0,13.97034 4.0296,17.99994 9,17.99994 C13.9704,17.99994 18,13.97034 18,8.99994 C18,4.02954 13.9704,-5.99999998e-05 9,-5.99999998e-05" id="Fill-1" fill="#FFFFFF" mask="url(#mask-2)"></path>
                        </g>
                    </g>
                </g>
            </g>
        </g>
    </g>
</svg>